<svg id="Group_455" data-name="Group 455" xmlns="http://www.w3.org/2000/svg" width="533.771" height="306.066" viewBox="0 0 533.771 306.066">
  <path id="Path_207" data-name="Path 207" d="M101.517,212.17s-.664,1.293-1.785,3.745c-8.3,17.711-42.392,96.4-42.392,190.814,0,8.787.28,17.467.84,25.938a450.517,450.517,0,0,0,7.6,57.888l5.947,27.68h58.855l6.712-27.68a451.074,451.074,0,0,0,7.6-57.888c.56-8.471.84-17.151.84-25.938C145.73,299.262,101.517,212.17,101.517,212.17Z" transform="translate(157.108 -212.17)" fill="#0d0f22"/>
  <path id="Path_208" data-name="Path 208" d="M191.342,406.34l-.01,0h.01a431.143,431.143,0,0,0-47.489-56.8c-.391-.391-.749-.749-1.14-1.075C86.467,292.639,21.329,261.731-8.5,249.485v33.22a500.48,500.48,0,0,0,37.65,65.757,438.781,438.781,0,0,0,46.639,57.875h.023l-.01,0,24.567,27.671,111.8.01Z" transform="translate(8.504 -127.954)" fill="#0d0f22"/>
  <path id="Path_209" data-name="Path 209" d="M319.048,247.563S227.123,277.6,151.335,352.79c-.384.352-.736.7-1.12,1.084a432.082,432.082,0,0,0-47.492,56.8l-19.854,27.68,110.939-.01,24.567-27.671-.088-.02a440.378,440.378,0,0,0,46.642-57.868C302.979,296.713,319.048,247.563,319.048,247.563Z" transform="translate(214.722 -132.292)" fill="#0d0f22"/>
</svg>
