<svg xmlns="http://www.w3.org/2000/svg" width="87.945" height="95.448" viewBox="0 0 87.945 95.448">
  <g id="Group_31" data-name="Group 31" transform="translate(-933.368 -1297.674)">
    <path id="Path_86" data-name="Path 86" d="M125.535,418.377a27.472,27.472,0,0,0-16.344,5.414,27.536,27.536,0,0,0-16.349-5.414H66.873a1.65,1.65,0,0,0-1.091,2.889l34.951,30.794.021.016a12.3,12.3,0,0,0,16.847.016l.048-.032L152.6,421.266a1.65,1.65,0,0,0-1.091-2.889Zm-54.3,3.3h21.6a24.242,24.242,0,0,1,13.776,4.312c-3.044,3.483-9.806,11.8-9.806,17.056a11.385,11.385,0,0,0,.064,1.214Zm37.947,30.441a9.085,9.085,0,0,1-9.074-9.073c0-3.467,5.147-10.5,9.074-14.98,3.927,4.478,9.073,11.513,9.073,14.98A9.081,9.081,0,0,1,109.186,452.119Zm12.316-7.848c.037-.407.064-.813.064-1.225,0-5.248-6.757-13.568-9.806-17.056a24.192,24.192,0,0,1,13.776-4.312h21.6Z" transform="translate(868.158 937.702)" fill="#da5f4b"/>
    <path id="Path_87" data-name="Path 87" d="M98.822,441.978a12.74,12.74,0,0,0-2.648,6.286h-29.3a1.65,1.65,0,1,0,0,3.3H97.656l.048.005a1.659,1.659,0,0,0,1.37-.727,1.678,1.678,0,0,0,.284-.931l-.005-.021a9.509,9.509,0,0,1,2.889-6.794l.021-.016.011-.011a9.519,9.519,0,0,1,16.146,6.816l-.005.026a1.662,1.662,0,0,0,1.658,1.659l.048-.005H150.9a1.65,1.65,0,0,0,0-3.3H121.6a12.748,12.748,0,0,0-2.744-6.415l20-20.019a1.649,1.649,0,0,0-2.333-2.333l-20.073,20.078a12.724,12.724,0,0,0-5.917-2.375V409.108a1.65,1.65,0,0,0-3.3,0V437.2a12.789,12.789,0,0,0-6.051,2.471L81.023,419.5a1.649,1.649,0,0,0-2.333,2.333Z" transform="translate(868.149 890.214)" fill="#da5f4b"/>
  </g>
</svg>
