<svg xmlns="http://www.w3.org/2000/svg" width="208.635" height="126.663" viewBox="0 0 208.635 126.663">
  <g id="Group_277" data-name="Group 277" transform="translate(-147.655 -36.746)">
    <g id="Group_241" data-name="Group 241" transform="translate(147.655 108.151)">
      <path id="Path_187" data-name="Path 187" d="M184.474,142.754a2.456,2.456,0,0,1-.872-1.059,4.789,4.789,0,0,1-.312-1.93V127.554a19.374,19.374,0,0,0-.341-3.489,9.782,9.782,0,0,0-1.37-3.488,8.225,8.225,0,0,0-2.927-2.709,10.178,10.178,0,0,0-5.078-1.091,13.825,13.825,0,0,0-5.513,1.06,8.759,8.759,0,0,0-4.081,3.863,9.112,9.112,0,0,0-3.022-3.552,7.8,7.8,0,0,0-4.578-1.37,10.792,10.792,0,0,0-4.828,1.06,10.111,10.111,0,0,0-3.769,3.364q-.125-1.806-.249-2.71a13.657,13.657,0,0,0-.436-1.962,18.636,18.636,0,0,1-2.3.81q-1.309.373-2.679.654t-2.709.5q-1.341.22-2.4.344v1.121a13.684,13.684,0,0,1,1.681.093,3,3,0,0,1,1.308.468,2.432,2.432,0,0,1,.872,1.09,4.817,4.817,0,0,1,.312,1.9v16.26a4.768,4.768,0,0,1-.312,1.93,2.448,2.448,0,0,1-.872,1.059,3,3,0,0,1-1.308.467,13.445,13.445,0,0,1-1.681.094v1.122q1.492,0,2.523-.032c.684-.021,1.286-.041,1.807-.063s1.016-.039,1.495-.061,1.007-.032,1.589-.032c.539,0,1.059.011,1.558.032s1.037.042,1.619.061,1.236.042,1.962.063,1.589.032,2.586.032v-1.125a13.739,13.739,0,0,1-1.684-.093,2.973,2.973,0,0,1-1.307-.468,2.47,2.47,0,0,1-.872-1.062,4.816,4.816,0,0,1-.311-1.937V127.325a12.177,12.177,0,0,1,.4-3.186,8.372,8.372,0,0,1,1.183-2.622,6.183,6.183,0,0,1,1.837-1.78,4.407,4.407,0,0,1,2.369-.657,4.1,4.1,0,0,1,2.988,1.031,5.946,5.946,0,0,1,1.528,2.5,11.3,11.3,0,0,1,.529,2.967q.062,1.5.062,2.436v11.739a4.837,4.837,0,0,1-.311,1.937,2.559,2.559,0,0,1-.841,1.062,2.753,2.753,0,0,1-1.277.468,13.705,13.705,0,0,1-1.683.093v1.125q1.5,0,2.523-.032c.685-.021,1.3-.041,1.837-.063s1.05-.039,1.528-.061,1.006-.032,1.589-.032q.81,0,1.525.032t1.557.061c.561.022,1.193.042,1.9.063s1.557.032,2.554.032v-1.125a13.706,13.706,0,0,1-1.683-.093,2.973,2.973,0,0,1-1.308-.468,2.47,2.47,0,0,1-.872-1.062,4.813,4.813,0,0,1-.311-1.937V126.014q0-3.747,1.745-5.62a5.315,5.315,0,0,1,3.987-1.874,3.914,3.914,0,0,1,2.991,1.124,6.691,6.691,0,0,1,1.525,2.624,12.66,12.66,0,0,1,.561,2.966c.061.979.094,1.7.094,2.154v12.363a4.81,4.81,0,0,1-.312,1.937,2.472,2.472,0,0,1-.873,1.062,2.962,2.962,0,0,1-1.308.468,13.672,13.672,0,0,1-1.681.093v1.125q1.494,0,2.553-.032c.706-.021,1.349-.041,1.932-.063s1.12-.039,1.619-.061,1.038-.032,1.62-.032q.808,0,1.526.032t1.495.061c.519.022,1.131.042,1.837.063s1.557.032,2.555.032v-1.122a13.451,13.451,0,0,1-1.683-.094A3,3,0,0,1,184.474,142.754Z" transform="translate(-137.004 -105.936)" fill="#fff"/>
      <path id="Path_188" data-name="Path 188" d="M209.807,142.032a1.331,1.331,0,0,1-1.09.5,1.734,1.734,0,0,1-1.152-.343,1.959,1.959,0,0,1-.591-.873,4.8,4.8,0,0,1-.249-1.121,10.3,10.3,0,0,1-.063-1.09V125.46a8.412,8.412,0,0,0-.966-4.236,7.635,7.635,0,0,0-2.523-2.679,10.342,10.342,0,0,0-3.614-1.4,21.561,21.561,0,0,0-4.174-.4,30.7,30.7,0,0,0-3.363.218,16.967,16.967,0,0,0-3.647.81,8.42,8.42,0,0,0-2.9,1.651,3.507,3.507,0,0,0-1.183,2.742,3.158,3.158,0,0,0,.747,2.274,2.409,2.409,0,0,0,1.807.778,2.085,2.085,0,0,0,1.774-.778,2.947,2.947,0,0,0,.594-1.839,5.125,5.125,0,0,0-.218-1.557,4.61,4.61,0,0,1-.218-.81,1.059,1.059,0,0,1,.561-.873,5.761,5.761,0,0,1,1.433-.654,10.247,10.247,0,0,1,1.9-.406,16.236,16.236,0,0,1,1.962-.124,5.313,5.313,0,0,1,2.991.717,4.45,4.45,0,0,1,1.557,1.745,5.972,5.972,0,0,1,.59,2.118c.063.727.1,1.339.1,1.837V126.4q0,.56-.9,1.058t-2.587,1.247q-1.558.686-3.737,1.495a27.324,27.324,0,0,0-4.173,1.962,13.118,13.118,0,0,0-3.4,2.773,5.712,5.712,0,0,0-1.4,3.863,6.193,6.193,0,0,0,.594,2.8,5.663,5.663,0,0,0,1.587,1.962,6.722,6.722,0,0,0,2.274,1.151,9.352,9.352,0,0,0,2.648.375,11.771,11.771,0,0,0,5.046-1,20.5,20.5,0,0,0,4.3-2.8,5.845,5.845,0,0,0,2.024,2.836,6.25,6.25,0,0,0,3.707.966,5.386,5.386,0,0,0,2.306-.467,6.707,6.707,0,0,0,1.65-1.06,5.771,5.771,0,0,0,1.029-1.184,6.418,6.418,0,0,0,.5-.9l-.81-.436A10.164,10.164,0,0,1,209.807,142.032Zm-9.936-2.505a10.221,10.221,0,0,1-2.647,2,6.85,6.85,0,0,1-3.272.814,2.822,2.822,0,0,1-1.527-.407,3.527,3.527,0,0,1-1.089-1.064,4.991,4.991,0,0,1-.654-1.44,5.86,5.86,0,0,1-.219-1.6,6.789,6.789,0,0,1,.81-3.535,7.631,7.631,0,0,1,2.119-2.284,15.648,15.648,0,0,1,2.99-1.659q1.683-.72,3.489-1.658Z" transform="translate(-128.915 -105.899)" fill="#fff"/>
      <path id="Path_189" data-name="Path 189" d="M239.694,142.754a2.45,2.45,0,0,1-.873-1.059,4.77,4.77,0,0,1-.311-1.93V127.18a20.485,20.485,0,0,0-.28-3.146,9.843,9.843,0,0,0-1.216-3.4,7.808,7.808,0,0,0-2.773-2.741,9.587,9.587,0,0,0-5.015-1.122,12.325,12.325,0,0,0-5.233,1.122,9.513,9.513,0,0,0-4.049,3.675q-.063-1.058-.218-2.274t-.468-2.771a20.1,20.1,0,0,1-2.242.81q-1.246.373-2.554.654t-2.617.5c-.873.147-1.66.26-2.367.344v1.121a13.671,13.671,0,0,1,1.681.093,2.991,2.991,0,0,1,1.308.468,2.442,2.442,0,0,1,.873,1.09,4.84,4.84,0,0,1,.311,1.9v16.26a4.79,4.79,0,0,1-.311,1.93,2.458,2.458,0,0,1-.873,1.059,2.99,2.99,0,0,1-1.308.467,13.432,13.432,0,0,1-1.681.094v1.122q1.492,0,2.492-.032c.663-.021,1.245-.041,1.745-.063s.974-.039,1.431-.061.975-.032,1.558-.032q.81,0,1.587.032t1.684.061c.6.022,1.277.042,2.025.063s1.619.032,2.615.032v-1.122a13.465,13.465,0,0,1-1.683-.094,3.005,3.005,0,0,1-1.308-.466,2.468,2.468,0,0,1-.872-1.056,4.768,4.768,0,0,1-.311-1.927V126.848a9.814,9.814,0,0,1,.436-2.951,7.772,7.772,0,0,1,1.246-2.455,6.455,6.455,0,0,1,1.962-1.707,5.134,5.134,0,0,1,2.585-.655,3.859,3.859,0,0,1,2.9,1.057,6.369,6.369,0,0,1,1.5,2.455,11.113,11.113,0,0,1,.56,2.8q.093,1.4.1,2.144v12.241a4.787,4.787,0,0,1-.312,1.927,2.467,2.467,0,0,1-.872,1.056,3,3,0,0,1-1.309.466,13.451,13.451,0,0,1-1.683.094v1.122q1.5,0,2.586-.032c.725-.021,1.38-.041,1.963-.063s1.121-.039,1.618-.061,1.038-.032,1.62-.032c.54,0,1.037.011,1.5.032s.955.042,1.495.061,1.152.042,1.839.063,1.526.032,2.523.032v-1.122a13.445,13.445,0,0,1-1.681-.094A2.99,2.99,0,0,1,239.694,142.754Z" transform="translate(-124.443 -105.936)" fill="#fff"/>
      <path id="Path_190" data-name="Path 190" d="M267.576,142.032a1.331,1.331,0,0,1-1.091.5,1.736,1.736,0,0,1-1.152-.343,1.956,1.956,0,0,1-.59-.873,4.742,4.742,0,0,1-.25-1.121,10.309,10.309,0,0,1-.063-1.09V125.46a8.424,8.424,0,0,0-.964-4.236,7.635,7.635,0,0,0-2.523-2.679,10.349,10.349,0,0,0-3.615-1.4,21.539,21.539,0,0,0-4.172-.4,30.7,30.7,0,0,0-3.364.218,16.982,16.982,0,0,0-3.647.81,8.415,8.415,0,0,0-2.9,1.651,3.508,3.508,0,0,0-1.184,2.742,3.153,3.153,0,0,0,.749,2.274,2.408,2.408,0,0,0,1.806.778,2.087,2.087,0,0,0,1.775-.778,2.946,2.946,0,0,0,.593-1.839,5.124,5.124,0,0,0-.218-1.557,4.734,4.734,0,0,1-.218-.81,1.059,1.059,0,0,1,.561-.873,5.791,5.791,0,0,1,1.434-.654,10.255,10.255,0,0,1,1.9-.406,16.255,16.255,0,0,1,1.963-.124,5.309,5.309,0,0,1,2.99.717,4.432,4.432,0,0,1,1.557,1.745,5.975,5.975,0,0,1,.591,2.118c.063.727.1,1.339.1,1.837V126.4c0,.373-.3.726-.9,1.058s-1.464.749-2.587,1.247q-1.556.686-3.737,1.495a27.323,27.323,0,0,0-4.173,1.962,13.117,13.117,0,0,0-3.4,2.773,5.717,5.717,0,0,0-1.4,3.863,6.177,6.177,0,0,0,.594,2.8,5.66,5.66,0,0,0,1.586,1.962,6.733,6.733,0,0,0,2.274,1.151,9.366,9.366,0,0,0,2.649.375,11.779,11.779,0,0,0,5.046-1,20.465,20.465,0,0,0,4.3-2.8,5.845,5.845,0,0,0,2.024,2.836,6.251,6.251,0,0,0,3.707.966,5.391,5.391,0,0,0,2.307-.467,6.729,6.729,0,0,0,1.65-1.06,5.724,5.724,0,0,0,1.028-1.184,6.308,6.308,0,0,0,.5-.9l-.81-.436A10.142,10.142,0,0,1,267.576,142.032Zm-9.936-2.505a10.228,10.228,0,0,1-2.648,2,6.845,6.845,0,0,1-3.271.814,2.829,2.829,0,0,1-1.528-.407,3.54,3.54,0,0,1-1.089-1.064,5.055,5.055,0,0,1-.654-1.44,5.858,5.858,0,0,1-.219-1.6,6.789,6.789,0,0,1,.811-3.535,7.617,7.617,0,0,1,2.119-2.284,15.638,15.638,0,0,1,2.988-1.659q1.684-.72,3.491-1.658Z" transform="translate(-118.903 -105.899)" fill="#fff"/>
      <rect id="Rectangle_143" data-name="Rectangle 143" width="16.447" height="2.741" transform="translate(126.215)" fill="#fff"/>
      <path id="Path_191" data-name="Path 191" d="M289.377,117.449c-.333,0-.644-.011-.935-.032s-.59-.032-.9-.032-.665-.009-1.058-.032-.9-.031-1.525-.031v1.122a4.8,4.8,0,0,1,2.18.53,2.007,2.007,0,0,1,.808,1.9,3.636,3.636,0,0,1-.155.934c-.1.374-.218.727-.343,1.058l-5.607,13.084-5.793-13.643c-.084-.249-.178-.53-.28-.84a2.565,2.565,0,0,1-.157-.78q0-1.556.967-1.9a6.217,6.217,0,0,1,2.087-.343v-1.122q-1.309,0-2.274.031l-1.776.063c-.54.021-1.04.041-1.495.062s-.956.03-1.5.03c-.5,0-.975-.008-1.433-.03s-.946-.041-1.464-.062-1.1-.041-1.742-.063-1.424-.031-2.337-.031v1.122a3.3,3.3,0,0,1,2.9,1.525,25.218,25.218,0,0,1,2.085,3.958l8.66,20.122-3.675,8.41a11.44,11.44,0,0,1-1.744,2.9,3.5,3.5,0,0,1-1.372,1.089,10.412,10.412,0,0,0-1.09.344,5.678,5.678,0,0,0-1.089.529,3.391,3.391,0,0,0-.874.779,1.784,1.784,0,0,0-.374,1.152,1.605,1.605,0,0,0,.594,1.339,2.018,2.018,0,0,0,1.277.467,2.889,2.889,0,0,0,1.806-.623,7.039,7.039,0,0,0,1.464-1.557,13.4,13.4,0,0,0,1.152-1.993q.5-1.06.873-1.93l13.829-31.96A12.951,12.951,0,0,1,291,119.66a3.546,3.546,0,0,1,2.679-1.216v-1.122q-1.683,0-2.493.062C290.645,117.427,290.041,117.449,289.377,117.449Z" transform="translate(-114.882 -105.798)" fill="#fff"/>
      <path id="Path_192" data-name="Path 192" d="M318.1,141.036a10.587,10.587,0,0,1-.718,1,1.333,1.333,0,0,1-1.091.5,1.728,1.728,0,0,1-1.151-.343,1.969,1.969,0,0,1-.592-.873,4.734,4.734,0,0,1-.249-1.121,10.3,10.3,0,0,1-.063-1.09V125.46a8.411,8.411,0,0,0-.966-4.236,7.621,7.621,0,0,0-2.521-2.679,10.352,10.352,0,0,0-3.614-1.4,21.564,21.564,0,0,0-4.175-.4,30.738,30.738,0,0,0-3.364.218,16.975,16.975,0,0,0-3.644.81,8.42,8.42,0,0,0-2.9,1.651,3.508,3.508,0,0,0-1.184,2.742,3.154,3.154,0,0,0,.749,2.274,2.406,2.406,0,0,0,1.806.778,2.087,2.087,0,0,0,1.775-.778,2.954,2.954,0,0,0,.592-1.839,5.127,5.127,0,0,0-.218-1.557,4.607,4.607,0,0,1-.218-.81,1.057,1.057,0,0,1,.561-.873,5.779,5.779,0,0,1,1.433-.654,10.289,10.289,0,0,1,1.9-.406,16.271,16.271,0,0,1,1.963-.124,5.3,5.3,0,0,1,2.988.717,4.426,4.426,0,0,1,1.558,1.745,5.973,5.973,0,0,1,.591,2.118c.063.727.094,1.339.094,1.837V126.4q0,.56-.9,1.058t-2.586,1.247q-1.557.686-3.737,1.495a27.429,27.429,0,0,0-4.173,1.962,13.119,13.119,0,0,0-3.4,2.773,5.718,5.718,0,0,0-1.4,3.863,6.192,6.192,0,0,0,.592,2.8,5.663,5.663,0,0,0,1.588,1.962,6.733,6.733,0,0,0,2.274,1.151,9.358,9.358,0,0,0,2.648.375,11.776,11.776,0,0,0,5.046-1,20.44,20.44,0,0,0,4.3-2.8,5.851,5.851,0,0,0,2.023,2.836,6.258,6.258,0,0,0,3.709.966,5.381,5.381,0,0,0,2.3-.467,6.694,6.694,0,0,0,1.651-1.06,5.721,5.721,0,0,0,1.027-1.184,6.343,6.343,0,0,0,.5-.9Zm-10.655-1.509a10.186,10.186,0,0,1-2.648,2,6.841,6.841,0,0,1-3.27.814,2.82,2.82,0,0,1-1.527-.407,3.532,3.532,0,0,1-1.09-1.064,5.026,5.026,0,0,1-.655-1.44,5.9,5.9,0,0,1-.218-1.6,6.789,6.789,0,0,1,.811-3.535,7.613,7.613,0,0,1,2.118-2.284,15.685,15.685,0,0,1,2.99-1.659q1.684-.72,3.489-1.658Z" transform="translate(-110.271 -105.899)" fill="#fff"/>
    </g>
    <g id="Group_242" data-name="Group 242" transform="translate(227.551 36.746)">
      <path id="Path_193" data-name="Path 193" d="M108.627,131.041a15.079,15.079,0,0,0-8.962,2.966,15.111,15.111,0,0,0-8.965-2.966H76.461a.9.9,0,0,0-.6,1.583l19.165,16.885.013.008a6.746,6.746,0,0,0,9.239.008c.007-.006.018-.009.026-.016l19.16-16.885a.9.9,0,0,0-.6-1.583ZM78.857,132.85H90.7a13.306,13.306,0,0,1,7.556,2.363c-1.671,1.91-5.378,6.473-5.378,9.351,0,.226.013.448.034.669Zm20.808,16.69a4.982,4.982,0,0,1-4.976-4.976c0-1.9,2.823-5.759,4.976-8.213,2.152,2.455,4.975,6.312,4.975,8.213A4.981,4.981,0,0,1,99.664,149.541Zm6.751-4.3a6.715,6.715,0,0,0,.034-.672c0-2.877-3.7-7.438-5.377-9.35a13.279,13.279,0,0,1,7.555-2.364h11.845Z" transform="translate(-75.55 -99.015)" fill="#fff"/>
      <path id="Path_194" data-name="Path 194" d="M93.977,122.672a7,7,0,0,0-1.455,3.447H76.457a.905.905,0,1,0,0,1.81H93.335l.027,0a.91.91,0,0,0,.907-.907v-.013a5.21,5.21,0,0,1,1.583-3.728l.011-.007.006-.006a5.22,5.22,0,0,1,8.854,3.736v.018a.909.909,0,0,0,.907.907l.027,0h16.878a.905.905,0,1,0,0-1.81H106.467a7,7,0,0,0-1.507-3.516l10.971-10.978a.9.9,0,1,0-1.28-1.279l-11,11.01a6.985,6.985,0,0,0-3.247-1.3v-15.4a.905.905,0,0,0-1.81,0v15.4a6.984,6.984,0,0,0-3.316,1.355L84.217,110.346a.9.9,0,1,0-1.28,1.279Z" transform="translate(-75.551 -103.746)" fill="#fff"/>
    </g>
  </g>
</svg>
