<svg xmlns="http://www.w3.org/2000/svg" width="45.153" height="68.467" viewBox="0 0 45.153 68.467">
  <g id="Group_498" data-name="Group 498" transform="translate(-290.566 -446.963)">
    <g id="Group_238" data-name="Group 238">
      <path id="Path_221" data-name="Path 221" d="M302.633,487.065l-5.893,26.348c-.175.7.9,1.277,1.56.84l9.808-6.462,3.363-16.473" fill="none" stroke="#eb6832" stroke-linecap="round" stroke-linejoin="round" stroke-width="2"/>
      <path id="Path_222" data-name="Path 222" d="M323.513,486.987l5.82,26.113c.175.7-.9,1.277-1.56.84l-9.807-6.463L314.812,491" fill="none" stroke="#eb6832" stroke-linecap="round" stroke-linejoin="round" stroke-width="2"/>
    </g>
    <g id="Group_240" data-name="Group 240">
      <path id="Path_223" data-name="Path 223" d="M305.792,468.809l5.367,5.6,9.332-9.733" fill="none" stroke="#eb6832" stroke-linecap="round" stroke-linejoin="round" stroke-width="2"/>
      <circle id="Ellipse_80" data-name="Ellipse 80" cx="13.651" cy="13.651" r="13.651" transform="translate(299.491 455.888)" fill="none" stroke="#eb6832" stroke-linecap="round" stroke-linejoin="round" stroke-width="2"/>
      <g id="Group_239" data-name="Group 239">
        <path id="Path_224" data-name="Path 224" d="M334.719,469.54c0,2.8-2.379,5.1-3.386,7.533-1.046,2.522-1.032,5.824-2.932,7.725s-5.2,1.887-7.725,2.931c-2.432,1.01-4.736,3.387-7.533,3.387s-5.1-2.379-7.534-3.387c-2.522-1.045-5.824-1.031-7.725-2.931s-1.887-5.2-2.932-7.725c-1.009-2.432-3.386-4.737-3.386-7.533s2.379-5.1,3.386-7.535c1.046-2.522,1.032-5.824,2.932-7.724s5.2-1.888,7.725-2.932c2.432-1.008,4.736-3.386,7.534-3.386s5.1,2.379,7.533,3.386c2.523,1.045,5.825,1.032,7.725,2.932s1.888,5.2,2.932,7.724C332.341,464.435,334.719,466.742,334.719,469.54Z" fill="none" stroke="#eb6832" stroke-linecap="round" stroke-linejoin="round" stroke-width="2"/>
      </g>
    </g>
  </g>
</svg>
