<svg xmlns="http://www.w3.org/2000/svg" width="66.557" height="52.812" viewBox="0 0 66.557 52.812">
  <g id="Group_495" data-name="Group 495" transform="translate(-189.022 -248.519)">
    <g id="Group_494" data-name="Group 494">
      <path id="Path_207" data-name="Path 207" d="M222.407,263.2s-.081.156-.217.454a58.22,58.22,0,0,0-5.143,23.152c0,1.066.034,2.12.1,3.147a54.615,54.615,0,0,0,.922,7.024l.721,3.359h7.142l.814-3.359a54.615,54.615,0,0,0,.922-7.024c.068-1.027.1-2.081.1-3.147A57.867,57.867,0,0,0,222.407,263.2Z" fill="none" stroke="#d96f3f" stroke-linecap="round" stroke-linejoin="round" stroke-width="2"/>
      <path id="Path_209" data-name="Path 209" d="M254.579,277.181a57.9,57.9,0,0,0-20.35,12.768c-.046.042-.089.085-.136.131a52.44,52.44,0,0,0-5.762,6.892l-2.409,3.358h13.461l2.98-3.357-.01,0a53.334,53.334,0,0,0,5.659-7.021A56.852,56.852,0,0,0,254.579,277.181Z" fill="none" stroke="#d96f3f" stroke-linecap="round" stroke-linejoin="round" stroke-width="2"/>
      <path id="Path_209-2" data-name="Path 209" d="M196.589,289.948a53.335,53.335,0,0,0,5.659,7.021l-.011,0,2.981,3.357h13.461l-2.409-3.358a52.37,52.37,0,0,0-5.763-6.892c-.046-.046-.089-.089-.136-.131a57.886,57.886,0,0,0-20.349-12.768A56.852,56.852,0,0,0,196.589,289.948Z" fill="none" stroke="#d96f3f" stroke-linecap="round" stroke-linejoin="round" stroke-width="2"/>
    </g>
    <circle id="Ellipse_47" data-name="Ellipse 47" cx="9.317" cy="9.317" r="9.317" transform="translate(234.595 249.519)" fill="none" stroke="#eb6832" stroke-miterlimit="10" stroke-width="2"/>
  </g>
</svg>
