<svg xmlns="http://www.w3.org/2000/svg" width="192.625" height="192.626" viewBox="0 0 192.625 192.626">
  <g id="Group_245" data-name="Group 245" transform="translate(-861 1)">
    <rect id="Rectangle_12" data-name="Rectangle 12" width="192.626" height="192.626" transform="translate(861 -1)" fill="#fff"/>
    <g id="Group_47" data-name="Group 47" transform="translate(888.047 28.808)">
      <path id="Path_72" data-name="Path 72" d="M69.69,466.98a1.654,1.654,0,0,1-.579-.705,3.169,3.169,0,0,1-.206-1.282v-8.107a12.873,12.873,0,0,0-.228-2.318,6.492,6.492,0,0,0-.91-2.316,5.465,5.465,0,0,0-1.944-1.8,6.757,6.757,0,0,0-3.372-.725,9.17,9.17,0,0,0-3.662.7A5.83,5.83,0,0,0,56.08,453a6.022,6.022,0,0,0-2.006-2.357,5.181,5.181,0,0,0-3.041-.91,7.143,7.143,0,0,0-3.2.7,6.7,6.7,0,0,0-2.5,2.234c-.055-.8-.111-1.4-.166-1.8a9.184,9.184,0,0,0-.29-1.3,12.2,12.2,0,0,1-1.529.538c-.58.166-1.173.31-1.78.434s-1.206.234-1.8.331-1.124.171-1.593.228v.744a9.178,9.178,0,0,1,1.116.06,2,2,0,0,1,.869.312,1.613,1.613,0,0,1,.58.725,3.232,3.232,0,0,1,.206,1.26v10.8a3.2,3.2,0,0,1-.206,1.282,1.644,1.644,0,0,1-.58.705,2.024,2.024,0,0,1-.869.31,9.159,9.159,0,0,1-1.116.062v.744q.99,0,1.675-.021c.454-.014.855-.027,1.2-.041l.991-.041c.318-.014.67-.021,1.056-.021.358,0,.7.008,1.034.021s.69.027,1.075.041.82.027,1.3.041,1.056.021,1.716.021v-.748a9.179,9.179,0,0,1-1.116-.06,1.96,1.96,0,0,1-.869-.312,1.642,1.642,0,0,1-.579-.705,3.19,3.19,0,0,1-.206-1.286v-8.251a8.09,8.09,0,0,1,.269-2.115,5.524,5.524,0,0,1,.785-1.741,4.133,4.133,0,0,1,1.219-1.182,2.932,2.932,0,0,1,1.574-.436,2.725,2.725,0,0,1,1.985.686A3.931,3.931,0,0,1,52.3,453.6a7.51,7.51,0,0,1,.353,1.971q.041.993.041,1.617v7.8a3.224,3.224,0,0,1-.206,1.286,1.691,1.691,0,0,1-.559.705,1.808,1.808,0,0,1-.847.312,9.19,9.19,0,0,1-1.118.06v.748q.993,0,1.675-.021t1.221-.041l1.013-.041c.317-.014.668-.021,1.056-.021.358,0,.7.008,1.013.021s.662.027,1.034.041.793.027,1.262.041,1.034.021,1.695.021v-.748a9.179,9.179,0,0,1-1.116-.06,1.952,1.952,0,0,1-.869-.312,1.629,1.629,0,0,1-.579-.705,3.19,3.19,0,0,1-.206-1.286v-9.122a5.308,5.308,0,0,1,1.157-3.732,3.534,3.534,0,0,1,2.649-1.245,2.6,2.6,0,0,1,1.985.748,4.423,4.423,0,0,1,1.013,1.741,8.369,8.369,0,0,1,.372,1.969q.061.973.062,1.43v8.21a3.19,3.19,0,0,1-.206,1.286,1.632,1.632,0,0,1-.58.705,1.952,1.952,0,0,1-.869.312,9.157,9.157,0,0,1-1.116.06v.748q.993,0,1.7-.021t1.282-.041q.578-.02,1.075-.041c.333-.014.69-.021,1.077-.021.356,0,.7.008,1.013.021l.993.041q.514.021,1.219.041c.467.014,1.034.021,1.7.021v-.744a9.112,9.112,0,0,1-1.116-.062A2.032,2.032,0,0,1,69.69,466.98Z" transform="translate(-38.17 -344.213)" fill="#0d0f21"/>
      <path id="Path_73" data-name="Path 73" d="M74.189,466.443a.885.885,0,0,1-.723.331,1.151,1.151,0,0,1-.765-.228,1.313,1.313,0,0,1-.393-.579,3.307,3.307,0,0,1-.166-.744,7.066,7.066,0,0,1-.041-.725V455.44a5.591,5.591,0,0,0-.641-2.813,5.069,5.069,0,0,0-1.675-1.778,6.854,6.854,0,0,0-2.4-.931,14.321,14.321,0,0,0-2.772-.269,20.461,20.461,0,0,0-2.232.144,11.346,11.346,0,0,0-2.421.538,5.592,5.592,0,0,0-1.924,1.1,2.329,2.329,0,0,0-.785,1.819,2.1,2.1,0,0,0,.5,1.512,1.6,1.6,0,0,0,1.2.516,1.389,1.389,0,0,0,1.178-.516,1.968,1.968,0,0,0,.393-1.221,3.446,3.446,0,0,0-.144-1.034,3.16,3.16,0,0,1-.146-.538.708.708,0,0,1,.372-.58,3.86,3.86,0,0,1,.952-.432,6.689,6.689,0,0,1,1.262-.269,10.547,10.547,0,0,1,1.3-.084,3.54,3.54,0,0,1,1.987.475,2.972,2.972,0,0,1,1.034,1.159,3.98,3.98,0,0,1,.392,1.406q.061.725.062,1.219v1.2c0,.249-.2.483-.6.7s-.974.5-1.718.828q-1.034.456-2.482.993a18.1,18.1,0,0,0-2.772,1.3,8.75,8.75,0,0,0-2.256,1.841,3.794,3.794,0,0,0-.931,2.563,4.128,4.128,0,0,0,.393,1.862,3.767,3.767,0,0,0,1.056,1.3,4.457,4.457,0,0,0,1.51.765,6.219,6.219,0,0,0,1.759.249,7.8,7.8,0,0,0,3.35-.664,13.55,13.55,0,0,0,2.854-1.86,3.875,3.875,0,0,0,1.344,1.882,4.15,4.15,0,0,0,2.462.643,3.581,3.581,0,0,0,1.531-.312,4.364,4.364,0,0,0,1.095-.7,3.847,3.847,0,0,0,.684-.785,4.308,4.308,0,0,0,.331-.6l-.538-.29A7.03,7.03,0,0,1,74.189,466.443Zm-6.6-1.663a6.766,6.766,0,0,1-1.757,1.328,4.528,4.528,0,0,1-2.172.542,1.873,1.873,0,0,1-1.015-.271,2.353,2.353,0,0,1-.723-.705,3.327,3.327,0,0,1-.434-.956,3.9,3.9,0,0,1-.146-1.06,4.513,4.513,0,0,1,.538-2.347,5.049,5.049,0,0,1,1.408-1.517,10.292,10.292,0,0,1,1.985-1.1q1.116-.479,2.316-1.1Z" transform="translate(-20.478 -344.132)" fill="#0d0f21"/>
      <path id="Path_74" data-name="Path 74" d="M87.221,466.98a1.644,1.644,0,0,1-.58-.705,3.169,3.169,0,0,1-.206-1.282v-8.356a13.721,13.721,0,0,0-.185-2.088,6.516,6.516,0,0,0-.808-2.256,5.165,5.165,0,0,0-1.841-1.819,6.363,6.363,0,0,0-3.329-.744,8.186,8.186,0,0,0-3.475.744,6.308,6.308,0,0,0-2.688,2.441q-.044-.7-.146-1.51t-.31-1.841a13.329,13.329,0,0,1-1.49.538q-.827.248-1.695.434c-.579.123-1.159.234-1.737.331s-1.1.171-1.572.228v.744a9.179,9.179,0,0,1,1.116.06,2,2,0,0,1,.869.312,1.623,1.623,0,0,1,.578.725,3.193,3.193,0,0,1,.208,1.26v10.8a3.165,3.165,0,0,1-.208,1.282,1.654,1.654,0,0,1-.578.705,2.024,2.024,0,0,1-.869.31,9.159,9.159,0,0,1-1.116.062v.744c.66,0,1.214-.008,1.654-.021s.828-.027,1.159-.041l.951-.041c.3-.014.647-.021,1.034-.021.358,0,.711.008,1.056.021s.717.027,1.116.041.849.027,1.346.041,1.073.021,1.736.021v-.744a9.158,9.158,0,0,1-1.116-.062,2.008,2.008,0,0,1-.869-.31,1.643,1.643,0,0,1-.579-.7,3.154,3.154,0,0,1-.208-1.28v-8.582a6.553,6.553,0,0,1,.29-1.96,5.23,5.23,0,0,1,.828-1.63,4.3,4.3,0,0,1,1.3-1.134,3.426,3.426,0,0,1,1.716-.434,2.549,2.549,0,0,1,1.922.7,4.25,4.25,0,0,1,1,1.628,7.485,7.485,0,0,1,.37,1.858q.064.929.064,1.422V465a3.155,3.155,0,0,1-.208,1.28,1.643,1.643,0,0,1-.579.7,2.008,2.008,0,0,1-.869.31,9.169,9.169,0,0,1-1.118.062v.744q.993,0,1.718-.021t1.3-.041q.579-.02,1.075-.041c.331-.014.69-.021,1.075-.021.358,0,.688.008.993.021s.633.027.991.041.766.027,1.221.041,1.013.021,1.675.021v-.744a9.135,9.135,0,0,1-1.116-.062A2.024,2.024,0,0,1,87.221,466.98Z" transform="translate(-10.694 -344.213)" fill="#0d0f21"/>
      <path id="Path_75" data-name="Path 75" d="M97.3,466.443a.886.886,0,0,1-.725.331,1.154,1.154,0,0,1-.765-.228,1.309,1.309,0,0,1-.392-.579,3.108,3.108,0,0,1-.166-.744,6.586,6.586,0,0,1-.043-.725V455.44a5.57,5.57,0,0,0-.641-2.813,5.046,5.046,0,0,0-1.673-1.778,6.849,6.849,0,0,0-2.4-.931,14.286,14.286,0,0,0-2.77-.269,20.523,20.523,0,0,0-2.234.144,11.4,11.4,0,0,0-2.421.538,5.583,5.583,0,0,0-1.922,1.1,2.33,2.33,0,0,0-.787,1.819,2.093,2.093,0,0,0,.5,1.512,1.6,1.6,0,0,0,1.2.516,1.384,1.384,0,0,0,1.178-.516,1.956,1.956,0,0,0,.393-1.221,3.386,3.386,0,0,0-.144-1.034,3.057,3.057,0,0,1-.144-.538.7.7,0,0,1,.372-.58,3.843,3.843,0,0,1,.951-.432,6.722,6.722,0,0,1,1.262-.269,10.554,10.554,0,0,1,1.3-.084,3.533,3.533,0,0,1,1.985.475,2.941,2.941,0,0,1,1.034,1.159,3.943,3.943,0,0,1,.393,1.406q.061.725.062,1.219v1.2q0,.374-.6.7c-.4.222-.972.5-1.718.828q-1.034.456-2.482.993a18.1,18.1,0,0,0-2.772,1.3,8.707,8.707,0,0,0-2.254,1.841,3.794,3.794,0,0,0-.931,2.563,4.1,4.1,0,0,0,.393,1.862,3.762,3.762,0,0,0,1.054,1.3,4.467,4.467,0,0,0,1.512.765,6.215,6.215,0,0,0,1.757.249,7.809,7.809,0,0,0,3.352-.664,13.55,13.55,0,0,0,2.854-1.86,3.863,3.863,0,0,0,1.344,1.882,4.144,4.144,0,0,0,2.46.643,3.569,3.569,0,0,0,1.531-.312,4.377,4.377,0,0,0,1.1-.7,3.832,3.832,0,0,0,.682-.785,4.307,4.307,0,0,0,.331-.6l-.538-.29A6.667,6.667,0,0,1,97.3,466.443Zm-6.6-1.663a6.743,6.743,0,0,1-1.759,1.328,4.528,4.528,0,0,1-2.172.542,1.871,1.871,0,0,1-1.013-.271,2.338,2.338,0,0,1-.725-.705,3.381,3.381,0,0,1-.434-.956,3.972,3.972,0,0,1-.144-1.06,4.513,4.513,0,0,1,.538-2.347,5.067,5.067,0,0,1,1.406-1.517,10.292,10.292,0,0,1,1.985-1.1q1.119-.479,2.318-1.1Z" transform="translate(1.423 -344.132)" fill="#0d0f21"/>
      <rect id="Rectangle_8" data-name="Rectangle 8" width="10.92" height="1.82" transform="translate(83.806 98.319)" fill="#0d0f21"/>
      <path id="Path_76" data-name="Path 76" d="M105.644,449.966c-.22,0-.427-.008-.619-.021s-.393-.021-.6-.021-.442-.006-.7-.02-.6-.021-1.013-.021v.746a3.192,3.192,0,0,1,1.447.351,1.333,1.333,0,0,1,.538,1.262,2.424,2.424,0,0,1-.1.619c-.068.249-.146.483-.228.7l-3.722,8.687-3.847-9.059c-.056-.166-.119-.351-.187-.557a1.737,1.737,0,0,1-.1-.518q0-1.034.641-1.262a4.167,4.167,0,0,1,1.387-.226v-.746q-.871,0-1.51.021t-1.18.041c-.358.014-.69.027-.991.041s-.635.021-.993.021c-.331,0-.649-.006-.952-.021l-.972-.041q-.517-.02-1.157-.041c-.429-.014-.945-.021-1.552-.021v.746a2.188,2.188,0,0,1,1.924,1.013,16.751,16.751,0,0,1,1.385,2.626l5.75,13.362-2.441,5.584a7.611,7.611,0,0,1-1.157,1.924,2.319,2.319,0,0,1-.912.723,6.7,6.7,0,0,0-.723.228,3.785,3.785,0,0,0-.725.351,2.368,2.368,0,0,0-.58.518,1.2,1.2,0,0,0-.247.765,1.068,1.068,0,0,0,.393.888,1.34,1.34,0,0,0,.849.31,1.922,1.922,0,0,0,1.2-.413,4.67,4.67,0,0,0,.972-1.034,8.86,8.86,0,0,0,.766-1.323q.333-.7.58-1.284l9.182-21.22a8.587,8.587,0,0,1,1.284-2.213,2.349,2.349,0,0,1,1.778-.806v-.746c-.746,0-1.3.016-1.656.041S106.086,449.966,105.644,449.966Z" transform="translate(10.218 -343.911)" fill="#0d0f21"/>
      <path id="Path_77" data-name="Path 77" d="M117.69,465.781a6.67,6.67,0,0,1-.475.662.892.892,0,0,1-.725.331,1.151,1.151,0,0,1-.766-.228,1.313,1.313,0,0,1-.393-.579,3.307,3.307,0,0,1-.166-.744,7.063,7.063,0,0,1-.041-.725V455.44a5.591,5.591,0,0,0-.641-2.813,5.052,5.052,0,0,0-1.675-1.778,6.854,6.854,0,0,0-2.4-.931,14.321,14.321,0,0,0-2.772-.269,20.461,20.461,0,0,0-2.232.144,11.373,11.373,0,0,0-2.421.538,5.565,5.565,0,0,0-1.923,1.1,2.324,2.324,0,0,0-.787,1.819,2.1,2.1,0,0,0,.5,1.512,1.6,1.6,0,0,0,1.2.516,1.384,1.384,0,0,0,1.178-.516,1.968,1.968,0,0,0,.393-1.221,3.446,3.446,0,0,0-.144-1.034,3.16,3.16,0,0,1-.146-.538.708.708,0,0,1,.372-.58,3.86,3.86,0,0,1,.952-.432,6.689,6.689,0,0,1,1.262-.269,10.554,10.554,0,0,1,1.3-.084,3.538,3.538,0,0,1,1.985.475,2.956,2.956,0,0,1,1.034,1.159,3.98,3.98,0,0,1,.392,1.406c.043.483.062.89.062,1.219v1.2q0,.374-.6.7t-1.716.828q-1.034.456-2.482.993a18.1,18.1,0,0,0-2.772,1.3,8.75,8.75,0,0,0-2.256,1.841,3.792,3.792,0,0,0-.929,2.563,4.1,4.1,0,0,0,.393,1.862,3.762,3.762,0,0,0,1.054,1.3,4.475,4.475,0,0,0,1.51.765,6.219,6.219,0,0,0,1.759.249,7.8,7.8,0,0,0,3.35-.664,13.549,13.549,0,0,0,2.854-1.86,3.888,3.888,0,0,0,1.344,1.882,4.15,4.15,0,0,0,2.462.643,3.581,3.581,0,0,0,1.531-.312,4.414,4.414,0,0,0,1.1-.7,3.893,3.893,0,0,0,.682-.785,4.306,4.306,0,0,0,.331-.6Zm-7.075-1a6.766,6.766,0,0,1-1.757,1.328,4.528,4.528,0,0,1-2.172.542,1.873,1.873,0,0,1-1.015-.271,2.353,2.353,0,0,1-.723-.705,3.328,3.328,0,0,1-.434-.956,3.9,3.9,0,0,1-.146-1.06,4.493,4.493,0,0,1,.54-2.347,5.042,5.042,0,0,1,1.406-1.517,10.292,10.292,0,0,1,1.985-1.1q1.116-.479,2.316-1.1Z" transform="translate(20.303 -344.132)" fill="#0d0f21"/>
      <path id="Path_78" data-name="Path 78" d="M55.928,415.954a3.32,3.32,0,0,0,4.053-2.409,3.173,3.173,0,0,0-.31-2.406.174.174,0,0,0-.24-.07l-.717.409a.169.169,0,0,0-.058.224,2.208,2.208,0,0,1,.158,1.5,2.15,2.15,0,0,1-4.164-1.062,2.194,2.194,0,0,1,.884-1.247.148.148,0,0,0,.058-.224l-.425-.691a.173.173,0,0,0-.255-.057,3.135,3.135,0,0,0-1.391,1.958A3.335,3.335,0,0,0,55.928,415.954Z" transform="translate(-23.72 -381.815)" fill="#0d0f21"/>
      <path id="Path_79" data-name="Path 79" d="M60.168,410.176a.163.163,0,0,0,.286.017l.481-.647a.282.282,0,0,0,.012-.327l-.532-.96,1.65-2.22,1.073.232a.264.264,0,0,0,.31-.105l.481-.645a.163.163,0,0,0-.1-.269l-6.7-1.43a.157.157,0,0,0-.173.066l-.055.074a.166.166,0,0,0-.014.187Zm-1.383-4.858,2.185.471-1.108,1.494-1.095-1.944Z" transform="translate(-20.452 -387.572)" fill="#0d0f21"/>
      <path id="Path_80" data-name="Path 80" d="M65.066,405.835a.184.184,0,0,0,.242.062l.729-.425a.177.177,0,0,0,.062-.242l-2.01-3.436.008,0,5.487,1.714.191-.115a.17.17,0,0,0,.066-.232l-3.146-5.378a.185.185,0,0,0-.242-.064l-.734.432a.173.173,0,0,0-.064.24l1.932,3.3-.008,0-5.392-1.586-.2.115a.177.177,0,0,0-.066.234Z" transform="translate(-15.679 -393.375)" fill="#0d0f21"/>
      <path id="Path_81" data-name="Path 81" d="M70.779,402.522l.838-.1a.175.175,0,0,0,.154-.195l-.467-3.956.01,0,4.346,3.769.22-.027a.174.174,0,0,0,.156-.185l-.732-6.194a.183.183,0,0,0-.2-.154l-.845.1a.18.18,0,0,0-.156.2l.45,3.8-.008,0-4.311-3.615-.23.027a.173.173,0,0,0-.154.187l.732,6.192A.181.181,0,0,0,70.779,402.522Z" transform="translate(-8.143 -395.477)" fill="#0d0f21"/>
      <path id="Path_82" data-name="Path 82" d="M77.207,401.783l.773.226a.281.281,0,0,0,.31-.1l.715-.834,2.657.777.156,1.087a.262.262,0,0,0,.2.251l.773.226a.164.164,0,0,0,.218-.187l-.99-6.779a.156.156,0,0,0-.123-.14l-.09-.027a.17.17,0,0,0-.179.053l-4.509,5.173A.164.164,0,0,0,77.207,401.783Zm3.962-3.267.027.006.318,2.215-1.786-.522Z" transform="translate(-1.293 -394.721)" fill="#0d0f21"/>
      <path id="Path_83" data-name="Path 83" d="M85.549,405.847a1.868,1.868,0,0,0,2.688-.168,1.664,1.664,0,0,0-.019-1.928,1.753,1.753,0,0,0,1.706-.534,1.813,1.813,0,0,0-.485-2.55l-1.671-1.3a.178.178,0,0,0-.247.031l-3.767,4.829a.176.176,0,0,0,.031.247Zm2.343-4.988.781.61a.756.756,0,0,1,.144,1.108.8.8,0,0,1-1.141.168l-.779-.61Zm-1.623,2.078.795.621a.894.894,0,0,1,.249,1.215.825.825,0,0,1-1.175.152l-.88-.69Z" transform="translate(5 -391.827)" fill="#0d0f21"/>
      <path id="Path_84" data-name="Path 84" d="M88.825,409.188a.181.181,0,0,0,.243.055l5.166-3.3a.182.182,0,0,0,.053-.243l-.464-.727a.184.184,0,0,0-.243-.055l-5.164,3.3a.182.182,0,0,0-.055.242Z" transform="translate(9.379 -386.551)" fill="#0d0f21"/>
      <path id="Path_85" data-name="Path 85" d="M91.762,413.517a3.054,3.054,0,0,1,.218-1.494.213.213,0,0,0-.138-.29l-.637-.185c-.162-.045-.2.012-.257.113a2.977,2.977,0,0,0-.21,2.147,1.953,1.953,0,0,0,2.289,1.625c1.159-.286,1.432-1.42,1.566-2.38.115-.8.319-1.2.742-1.307a.74.74,0,0,1,.826.635,3.022,3.022,0,0,1-.187,1.369.244.244,0,0,0,.187.286l.6.216a.228.228,0,0,0,.282-.128,3.247,3.247,0,0,0,.158-1.944,1.847,1.847,0,0,0-2.224-1.593c-1.062.263-1.391,1.239-1.523,2.17-.117.83-.335,1.293-.795,1.406A.771.771,0,0,1,91.762,413.517Z" transform="translate(11.557 -381.205)" fill="#0d0f21"/>
      <path id="Path_86" data-name="Path 86" d="M87.181,418.377a10,10,0,0,0-5.951,1.971,10.025,10.025,0,0,0-5.953-1.971H65.823a.6.6,0,0,0-.4,1.052l12.725,11.212.008.006a4.48,4.48,0,0,0,6.134.006l.018-.012,12.723-11.212a.6.6,0,0,0-.4-1.052Zm-19.768,1.2h7.865a8.826,8.826,0,0,1,5.016,1.57c-1.108,1.268-3.57,4.3-3.57,6.21a4.146,4.146,0,0,0,.023.442Zm13.816,11.083a3.308,3.308,0,0,1-3.3-3.3c0-1.262,1.874-3.824,3.3-5.454,1.43,1.63,3.3,4.192,3.3,5.454A3.306,3.306,0,0,1,81.228,430.662Zm4.484-2.857c.014-.148.023-.3.023-.446,0-1.911-2.46-4.94-3.57-6.21a8.808,8.808,0,0,1,5.016-1.57h7.863Z" transform="translate(-12.53 -373.772)" fill="#0d0f21"/>
      <path id="Path_87" data-name="Path 87" d="M77.453,420.027a4.638,4.638,0,0,0-.964,2.289H65.821a.6.6,0,1,0,0,1.2H77.029l.018,0a.6.6,0,0,0,.5-.265.611.611,0,0,0,.1-.339l0-.008a3.462,3.462,0,0,1,1.052-2.474l.008-.006,0,0a3.466,3.466,0,0,1,5.879,2.482l0,.01a.605.605,0,0,0,.6.6l.018,0H96.415a.6.6,0,0,0,0-1.2H85.747a4.641,4.641,0,0,0-1-2.335l7.283-7.289a.6.6,0,0,0-.849-.849l-7.308,7.31a4.633,4.633,0,0,0-2.154-.865V408.06a.6.6,0,0,0-1.2,0v10.228a4.656,4.656,0,0,0-2.2.9l-7.341-7.345a.6.6,0,0,0-.849.849Z" transform="translate(-12.532 -384.12)" fill="#0d0f21"/>
      <path id="Path_88" data-name="Path 88" d="M60.23,423.34l-5.594,2.507a.181.181,0,0,0-.09.232l.351.787a.184.184,0,0,0,.234.088l5.594-2.507a.18.18,0,0,0,.09-.232l-.353-.787A.18.18,0,0,0,60.23,423.34Z" transform="translate(-22.661 -369.082)" fill="#0d0f21"/>
      <path id="Path_89" data-name="Path 89" d="M62.559,433.562l.2-5.614-.164-.166a.178.178,0,0,0-.243-.008l-4.424,4.385a.181.181,0,0,0,0,.247l.594.6a.173.173,0,0,0,.247,0l2.828-2.8.006.008L61.3,435.95l.156.16a.174.174,0,0,0,.242.006l4.425-4.383a.183.183,0,0,0,0-.249l-.6-.606a.177.177,0,0,0-.249,0l-2.715,2.69Z" transform="translate(-19.493 -364.907)" fill="#0d0f21"/>
      <path id="Path_90" data-name="Path 90" d="M67.15,435.238l.684-1.6,2.522,1.077a.174.174,0,0,0,.232-.092l.3-.7a.175.175,0,0,0-.092-.23l-3.469-1.482a.176.176,0,0,0-.23.093l-2.409,5.639a.173.173,0,0,0,.093.23l.783.337a.183.183,0,0,0,.232-.093l.919-2.154,2.106.9a.179.179,0,0,0,.23-.092l.3-.7a.184.184,0,0,0-.093-.232Z" transform="translate(-13.051 -360.675)" fill="#0d0f21"/>
      <path id="Path_91" data-name="Path 91" d="M73.069,433.927l-.878-.018a.18.18,0,0,0-.179.171l-.086,3.853a2.579,2.579,0,0,0,5.156.113l.086-3.851a.181.181,0,0,0-.171-.179l-.88-.019a.175.175,0,0,0-.179.171l-.084,3.8a1.349,1.349,0,1,1-2.7-.07l.086-3.787A.18.18,0,0,0,73.069,433.927Z" transform="translate(-6.176 -359.051)" fill="#0d0f21"/>
      <path id="Path_92" data-name="Path 92" d="M82.9,439.1a1.954,1.954,0,0,0,1.323-2.478c-.43-1.114-1.589-1.239-2.557-1.253-.81-.014-1.237-.166-1.393-.573a.736.736,0,0,1,.526-.9,3.031,3.031,0,0,1,1.383.012c.131.027.234-.092.261-.22l.138-.621a.229.229,0,0,0-.162-.265,3.253,3.253,0,0,0-1.952.092,1.847,1.847,0,0,0-1.3,2.408,2.264,2.264,0,0,0,2.343,1.237c.84.012,1.328.171,1.5.612a.77.77,0,0,1-.528.968,3.05,3.05,0,0,1-1.512-.031.215.215,0,0,0-.269.175l-.1.655c-.025.169.035.195.142.243A2.981,2.981,0,0,0,82.9,439.1Z" transform="translate(0.575 -360.205)" fill="#0d0f21"/>
      <path id="Path_93" data-name="Path 93" d="M88.838,431.2l-1.72,1.506-1-1.143,2.063-1.806a.174.174,0,0,0,.016-.247l-.5-.573a.179.179,0,0,0-.249-.016L84.611,431.4a.176.176,0,0,0-.018.247l4.04,4.613a.176.176,0,0,0,.249.016l2.836-2.482a.172.172,0,0,0,.016-.247l-.5-.573a.173.173,0,0,0-.247-.016l-2.063,1.806-1.067-1.219,1.72-1.508a.175.175,0,0,0,.018-.247l-.506-.579A.182.182,0,0,0,88.838,431.2Z" transform="translate(5.791 -363.821)" fill="#0d0f21"/>
      <path id="Path_94" data-name="Path 94" d="M94.146,423.783a3.248,3.248,0,0,0-4.344,1.455l-.986,1.96a.176.176,0,0,0,.084.228l5.475,2.748a.174.174,0,0,0,.232-.07l.984-1.96A3.251,3.251,0,0,0,94.146,423.783Zm.388,3.954-.473.943-3.781-1.9.473-.943a2.115,2.115,0,0,1,3.781,1.9Z" transform="translate(9.82 -368.97)" fill="#0d0f21"/>
    </g>
  </g>
</svg>
