<svg id="Group_196" data-name="Group 196" xmlns="http://www.w3.org/2000/svg" xmlns:xlink="http://www.w3.org/1999/xlink" width="24.924" height="23.612" viewBox="0 0 24.924 23.612">
  <defs>
    <clipPath id="clip-path">
      <rect id="Rectangle_106" data-name="Rectangle 106" width="24.924" height="23.613" fill="#fff"/>
    </clipPath>
  </defs>
  <g id="Group_195" data-name="Group 195" transform="translate(0 0)">
    <g id="Group_194" data-name="Group 194" transform="translate(0)">
      <g id="Group_193" data-name="Group 193" clip-path="url(#clip-path)">
        <path id="Path_181" data-name="Path 181" d="M11.8,23.149h-.231c-1.814,0-3.491-.042-5.121-.141A6.847,6.847,0,0,1,2.5,21.514,6.335,6.335,0,0,1,.376,18.078a15.233,15.233,0,0,1-.349-3.636C.015,13.6,0,12.595,0,11.577S.015,9.553.026,8.707A15.234,15.234,0,0,1,.376,5.071,6.334,6.334,0,0,1,2.5,1.635,6.847,6.847,0,0,1,6.45.141C8.081.042,9.758,0,11.576,0S15.068.042,16.7.141a6.847,6.847,0,0,1,3.946,1.494,6.333,6.333,0,0,1,2.129,3.436,15.226,15.226,0,0,1,.349,3.636c.012.845.024,1.846.026,2.865v0c0,1.018-.015,2.02-.026,2.865a15.218,15.218,0,0,1-.349,3.636,6.333,6.333,0,0,1-2.129,3.436A6.846,6.846,0,0,1,16.7,23.008c-1.561.1-3.165.141-4.9.141Zm-.231-1.809c1.785,0,3.424-.041,5.016-.138a4.981,4.981,0,0,0,2.913-1.09A4.566,4.566,0,0,0,21.02,17.63a13.85,13.85,0,0,0,.293-3.214c.012-.839.024-1.834.026-2.842s-.015-2-.026-2.842a13.853,13.853,0,0,0-.293-3.214A4.566,4.566,0,0,0,19.5,3.036a4.983,4.983,0,0,0-2.913-1.09c-1.592-.1-3.231-.142-5.012-.138s-3.424.041-5.016.138a4.983,4.983,0,0,0-2.913,1.09A4.566,4.566,0,0,0,2.128,5.518a13.852,13.852,0,0,0-.293,3.214c-.012.84-.024,1.835-.026,2.844s.014,2,.026,2.84a13.85,13.85,0,0,0,.293,3.214,4.566,4.566,0,0,0,1.519,2.482A4.983,4.983,0,0,0,6.56,21.2c1.592.1,3.232.142,5.012.138Zm-.043-4.114a5.652,5.652,0,1,1,5.652-5.652,5.658,5.658,0,0,1-5.652,5.652Zm0-9.495a3.843,3.843,0,1,0,3.843,3.843,3.848,3.848,0,0,0-3.843-3.843Zm6.285-3.617A1.356,1.356,0,1,0,19.17,5.471a1.356,1.356,0,0,0-1.356-1.356Zm0,0" transform="translate(0.504 0.168)" fill="#fff"/>
      </g>
    </g>
  </g>
</svg>
