<svg xmlns="http://www.w3.org/2000/svg" width="533.771" height="306.066" viewBox="0 0 533.771 306.066">
  <g id="Group_273" data-name="Group 273" transform="translate(0)">
    <path id="Path_207" data-name="Path 207" d="M101.553,212.17s.664,1.293,1.785,3.745c8.3,17.711,42.392,96.4,42.392,190.814,0,8.787-.28,17.467-.84,25.938a450.514,450.514,0,0,1-7.6,57.888l-5.947,27.68H72.492l-6.712-27.68a451.07,451.07,0,0,1-7.6-57.888c-.56-8.471-.84-17.151-.84-25.938C57.341,299.262,101.553,212.17,101.553,212.17Z" transform="translate(173.592 -212.17)" fill="#0d0f22"/>
    <path id="Path_208" data-name="Path 208" d="M12.314,406.34l.01,0h-.01a431.144,431.144,0,0,1,47.489-56.8c.391-.391.749-.749,1.14-1.075,56.246-55.823,121.384-86.731,151.217-98.977v33.22a500.48,500.48,0,0,1-37.65,65.757,438.78,438.78,0,0,1-46.639,57.875h-.023l.01,0L103.292,434.01l-111.8.01Z" transform="translate(321.611 -127.954)" fill="#0d0f22"/>
    <path id="Path_209" data-name="Path 209" d="M82.869,247.563S174.795,277.6,250.582,352.79c.384.352.736.7,1.12,1.084a432.082,432.082,0,0,1,47.492,56.8l19.854,27.68-110.939-.01-24.567-27.671.088-.02a440.377,440.377,0,0,1-46.642-57.868C98.938,296.713,82.869,247.563,82.869,247.563Z" transform="translate(-82.869 -132.292)" fill="#0d0f22"/>
  </g>
</svg>
