<svg xmlns="http://www.w3.org/2000/svg" width="46.225" height="47.561" viewBox="0 0 46.225 47.561">
  <g id="Group_497" data-name="Group 497" transform="translate(-402.288 -252.638)">
    <g id="Group_496" data-name="Group 496">
      <path id="Path_370" data-name="Path 370" d="M408.84,298.785c-2.78-2.8-5.552-5.6-5.552-11.171s2.772-8.372,5.552-11.171,5.562-5.6,5.562-11.2-2.781-8.4-5.562-11.2" fill="none" stroke="#eb6832" stroke-linecap="round" stroke-linejoin="round" stroke-width="2"/>
      <path id="Path_371" data-name="Path 371" d="M419.011,298.785c-2.78-2.8-5.552-5.6-5.552-11.171s2.772-8.372,5.552-11.171,5.562-5.6,5.562-11.2-2.781-8.4-5.562-11.2" fill="none" stroke="#eb6832" stroke-linecap="round" stroke-linejoin="round" stroke-width="2"/>
      <path id="Path_372" data-name="Path 372" d="M429.182,298.785c-2.78-2.8-5.552-5.6-5.552-11.171s2.772-8.372,5.552-11.171,5.562-5.6,5.562-11.2-2.781-8.4-5.562-11.2" fill="none" stroke="#eb6832" stroke-linecap="round" stroke-linejoin="round" stroke-width="2"/>
    </g>
    <path id="Path_373" data-name="Path 373" d="M441.99,289.856c-1.826-3.24-2.282-3.7-5.522-5.522,3.24-1.826,3.7-2.283,5.522-5.523,1.826,3.24,2.283,3.7,5.523,5.523C444.273,286.16,443.816,286.616,441.99,289.856Z" fill="none" stroke="#d96f3f" stroke-linecap="round" stroke-linejoin="round" stroke-width="2"/>
  </g>
</svg>
